<svg style="" width="53.360000" height="45.040000" version="1.1" xmlns="http://www.w3.org/2000/svg">
<path d="M23.360000 -0.000000 C24.213338 -0.000000 24.973330 0.333330 25.640000 1.000000 C26.306670 1.666670 26.640000 2.453329 26.640000 3.360000 L26.640000 11.840000 C34.213371 12.693338 40.559974 15.959972 45.680000 21.640000 C50.800026 27.320028 53.360000 33.999962 53.360000 41.680000 L53.360000 45.040000 C49.946650 39.866641 46.053355 36.386676 41.680000 34.600000 C37.306645 32.813324 32.293362 31.840001 26.640000 31.680000 L26.640000 40.000000 C26.640000 40.906671 26.306670 41.693330 25.640000 42.360000 C24.973330 43.026670 24.213338 43.360000 23.360000 43.360000 C22.399995 43.360000 21.600003 43.040003 20.960000 42.400000 L0.000000 21.680000 L20.960000 0.960000 C21.600003 0.319997 22.399995 -0.000000 23.360000 -0.000000 Z M53.360000 45.680000" style="fill:black"/>
</svg>