<?xml version="1.0" encoding="utf-8"?>
<!-- Generator: Adobe Illustrator 22.0.1, SVG Export Plug-In . SVG Version: 6.00 Build 0)  -->
<svg version="1.1" id="Ebene_1" xmlns="http://www.w3.org/2000/svg" xmlns:xlink="http://www.w3.org/1999/xlink" x="0px" y="0px"
	 viewBox="0 0 24 24" style="enable-background:new 0 0 24 24;" xml:space="preserve">
<style type="text/css">
	.st0{fill:#112052;}
</style>
<path class="st0" d="M5.7,23l-5.4-5.4C0.1,17.4,0,17.2,0,16.9c0-0.3,0.1-0.5,0.3-0.7L15.2,1.3C15.4,1.1,15.7,1,15.9,1
	c0.3,0,0.5,0.1,0.7,0.3l7.1,7.1C23.9,8.6,24,8.8,24,9.1c0,0.3-0.1,0.5-0.3,0.7L12.5,21H18v2C18,23,5.7,23,5.7,23z M9.3,21l-5.5-5.5
	l-1.4,1.4L6.5,21H9.3z M9.8,9.6l-4.5,4.5l5.7,5.7l4.5-4.5C15.4,15.2,9.8,9.6,9.8,9.6z"/>
</svg>
