<svg xmlns="http://www.w3.org/2000/svg" viewBox="0 0 211.61 281.56"><defs><style>.a{fill:#e84e1b;}.b{fill:#fff;}.c{fill:#f29100;}.d{fill:#cd1531;}</style></defs><title>no-dice-logo</title><path class="a" d="M104.32,18.32A19.26,19.26,0,0,0,90.64,24l-67,67-6.22,6.22a19.34,19.34,0,0,0-5.65,13.69h0V173a19.25,19.25,0,0,1,5.64-13.68L34.76,142l51-51,4.92-4.91a19.3,19.3,0,0,1,13.68-5.65h0V18.32Z"/><path class="b" d="M10.38,173V110.9a20.58,20.58,0,0,1,6-14.65L89.67,23a20.56,20.56,0,0,1,14.65-6h1.37V81.8h-1.37A17.86,17.86,0,0,0,91.6,87L18.36,160.29A17.83,17.83,0,0,0,13.11,173ZM103,19.74A17.78,17.78,0,0,0,91.6,24.93L18.36,98.18a17.83,17.83,0,0,0-5.25,12.72v51.78a21.11,21.11,0,0,1,3.31-4.32L89.67,85.11a20.56,20.56,0,0,1,13.29-6Z"/><path class="c" d="M191.26,97.21,185,91,118,24a19.28,19.28,0,0,0-13.69-5.65V80.43A19.32,19.32,0,0,1,118,86.08L122.92,91l51,51,17.38,17.38A19.29,19.29,0,0,1,196.9,173V110.9h0A19.33,19.33,0,0,0,191.26,97.21Z"/><path class="b" d="M198.27,173h-2.73a17.87,17.87,0,0,0-5.25-12.72L117,87a17.86,17.86,0,0,0-12.72-5.24H103V17h1.36A20.54,20.54,0,0,1,119,23l73.25,73.25a20.57,20.57,0,0,1,6.05,14.65Zm-92.58-93.9a20.54,20.54,0,0,1,13.28,6l73.25,73.25a20.81,20.81,0,0,1,3.32,4.32V110.76a17.89,17.89,0,0,0-5.25-12.58L117,24.93a17.78,17.78,0,0,0-11.35-5.19Z"/><path class="b" d="M70,84.37c0,2.42,4.28.24,9-4.55s8-10.24,8-12.69-3.29-1-8,3.83S70,82,70,84.37Z"/><path class="b" d="M70.9,85.71a1.6,1.6,0,0,1-.56-.1,1.21,1.21,0,0,1-.7-1.24h0c0-2.72,4.74-9.2,9.13-13.65,1.74-1.76,6-5.77,7.88-5,.35.14.76.5.76,1.41,0,2.7-3.51,8.26-8.15,12.93C76.34,83,72.79,85.71,70.9,85.71Zm-.58-1.34c0,.49.2.57.28.61,1,.4,4.31-1.51,8.17-5.4,5-5,8-10.26,8-12.45q0-.64-.33-.78c-.83-.34-3.35,1-7.13,4.85-4.85,4.91-8.94,10.94-8.94,13.17Z"/><path class="b" d="M23.79,111c0,2.35,3.29.75,8.05-4.11s9-11,9-13.41-4.29-.06-9,4.83S23.79,108.66,23.79,111Z"/><path class="b" d="M24.65,112.41a1.39,1.39,0,0,1-.5-.09c-.32-.13-.7-.47-.7-1.32,0-2.59,3.5-8.15,8.14-12.93,3.27-3.36,7.3-6.45,9-5.78a1.14,1.14,0,0,1,.68,1.19c0,2.66-4.74,9.16-9.14,13.65C30.46,108.79,26.68,112.41,24.65,112.41ZM40,92.87c-1.23,0-4.33,2-7.92,5.68-5,5.12-7.95,10.35-7.95,12.45,0,.38.09.61.28.69.81.32,3.34-1.11,7.18-5,4.85-5,8.94-11,8.94-13.17,0-.46-.18-.53-.24-.56A.84.84,0,0,0,40,92.87Z"/><path class="b" d="M145.76,79.61c-2.42-.18-.55,4.26,3.87,9.35s9.63,8.78,12.07,9,1.22-3.21-3.23-8.3S148.17,79.79,145.76,79.61Z"/><path class="b" d="M161.88,98.27h-.21c-2.69-.2-8-4.1-12.29-9.07-3-3.47-5.69-7.69-4.88-9.31a1.19,1.19,0,0,1,1.28-.61h0c2.72.2,8.84,5.41,12.95,10.12,1.63,1.87,5.32,6.4,4.41,8.23A1.29,1.29,0,0,1,161.88,98.27ZM145.62,80c-.39,0-.47.17-.51.24-.47,1,1.18,4.4,4.78,8.55,4.63,5.33,9.65,8.68,11.83,8.84q.65,0,.81-.27c.4-.8-.78-3.42-4.32-7.47C153.68,84.65,148,80.12,145.73,80h-.11Z"/><path class="d" d="M17.39,186.7l14.45,14.45,58.8,58.79a19.4,19.4,0,0,0,27.37,0l58.79-58.79,14.46-14.45A19.33,19.33,0,0,0,196.9,173h0a19.29,19.29,0,0,0-5.64-13.68L173.88,142l-51-51L118,86.08a19.4,19.4,0,0,0-27.37,0L85.72,91l-51,51L17.39,159.33A19.25,19.25,0,0,0,11.75,173h0A19.34,19.34,0,0,0,17.39,186.7Z"/><path class="b" d="M104.38,267a20.63,20.63,0,0,1-14.66-6l-73.29-73.2a20.57,20.57,0,0,1-6-14.65v-.14a20.54,20.54,0,0,1,6-14.52l73.2-73.29a20.79,20.79,0,0,1,29.3,0l73.29,73.21a20.56,20.56,0,0,1,6.06,14.51V173a20.56,20.56,0,0,1-6,14.65L119,260.9A20.62,20.62,0,0,1,104.38,267ZM13.11,173.2a17.86,17.86,0,0,0,5.25,12.58h0L91.65,259a18.07,18.07,0,0,0,25.45,0l73.2-73.29a17.85,17.85,0,0,0,5.24-12.63V173a17.81,17.81,0,0,0-5.25-12.71L117,87a18,18,0,0,0-25.44,0l-73.2,73.29a17.9,17.9,0,0,0-5.24,12.73Z"/><polygon class="b" points="101.97 195.59 80.58 174.21 88.31 166.48 101.97 180.15 127.83 154.29 135.55 162.02 101.97 195.59"/></svg>