<svg style="" width="47.968750" height="47.968750" version="1.1" xmlns="http://www.w3.org/2000/svg">
<path d="M47.968750 23.984375 C47.968750 25.078130 47.851564 26.015621 47.617188 26.796875 C47.382811 27.578129 46.692714 27.968750 45.546875 27.968750 L27.968750 27.968750 L27.968750 45.625000 C27.968750 46.718755 27.578129 47.382811 26.796875 47.617188 C26.015621 47.851564 25.078130 47.968750 23.984375 47.968750 C22.890620 47.968750 21.953129 47.851564 21.171875 47.617188 C20.390621 47.382811 20.000000 46.718755 20.000000 45.625000 L20.000000 27.968750 L2.421875 27.968750 C1.276036 27.968750 0.585939 27.578129 0.351562 26.796875 C0.117186 26.015621 0.000000 25.078130 0.000000 23.984375 C0.000000 22.890620 0.117186 21.953129 0.351562 21.171875 C0.585939 20.390621 1.276036 20.000000 2.421875 20.000000 L20.000000 20.000000 L20.000000 2.421875 C20.000000 1.328120 20.390621 0.651043 21.171875 0.390625 C21.953129 0.130207 22.890620 -0.000000 23.984375 -0.000000 C25.078130 -0.000000 26.015621 0.130207 26.796875 0.390625 C27.578129 0.651043 27.968750 1.328120 27.968750 2.421875 L27.968750 20.000000 L45.546875 20.000000 C46.692714 20.000000 47.382811 20.390621 47.617188 21.171875 C47.851564 21.953129 47.968750 22.890620 47.968750 23.984375 Z M63.984375 60.000000" style="fill:black"/>
</svg>