<?xml version="1.0" encoding="utf-8"?>
<!-- Generator: Adobe Illustrator 22.0.1, SVG Export Plug-In . SVG Version: 6.00 Build 0)  -->
<svg version="1.1" id="Ebene_1" xmlns="http://www.w3.org/2000/svg" xmlns:xlink="http://www.w3.org/1999/xlink" x="0px" y="0px"
	 viewBox="0 0 80 71.4" style="enable-background:new 0 0 80 71.4;" xml:space="preserve">
<style type="text/css">
	.st0{fill:#112052;}
</style>
<path class="st0" d="M29.7,20c-1.8,2.7-3.8,6.8-6.1,12.2C23,30.9,22.4,29.8,22,29c-0.4-0.8-1-1.8-1.8-2.8s-1.5-1.9-2.3-2.5
	c-0.8-0.6-1.7-1.1-2.8-1.6c-1.1-0.4-2.3-0.6-3.6-0.6h-10c-0.4,0-0.8-0.1-1-0.4C0.1,20.8,0,20.4,0,20v-8.6c0-0.4,0.1-0.8,0.4-1
	C0.7,10.1,1,10,1.4,10h10C18.9,10,25,13.3,29.7,20z M79.6,54.7c0.3,0.3,0.4,0.6,0.4,1s-0.1,0.8-0.4,1L65.3,71
	c-0.3,0.3-0.6,0.4-1,0.4c-0.4,0-0.7-0.1-1-0.4s-0.4-0.6-0.4-1v-8.6c-1,0-2.2,0-3.8,0s-2.8,0-3.6,0c-0.8,0-1.9,0-3.3,0
	s-2.4-0.1-3.2-0.2c-0.8-0.1-1.7-0.3-2.9-0.5c-1.1-0.2-2.1-0.5-2.8-0.8c-0.7-0.3-1.6-0.8-2.6-1.3c-1-0.5-1.9-1.1-2.6-1.8
	s-1.6-1.5-2.5-2.4c-0.9-0.9-1.7-1.9-2.5-3.1c1.8-2.8,3.8-6.8,6.1-12.2c0.7,1.3,1.2,2.4,1.7,3.2c0.4,0.8,1,1.8,1.8,2.8
	c0.8,1.1,1.5,1.9,2.3,2.5c0.8,0.6,1.7,1.1,2.8,1.6c1.1,0.4,2.3,0.6,3.6,0.6h11.4v-8.6c0-0.4,0.1-0.8,0.4-1c0.3-0.3,0.6-0.4,1-0.4
	c0.4,0,0.7,0.1,1.1,0.4L79.6,54.7z M79.6,14.7c0.3,0.3,0.4,0.6,0.4,1c0,0.4-0.1,0.8-0.4,1L65.3,31c-0.3,0.3-0.6,0.4-1,0.4
	c-0.4,0-0.7-0.1-1-0.4c-0.3-0.3-0.4-0.6-0.4-1v-8.6H51.4c-1.4,0-2.7,0.2-3.9,0.7c-1.2,0.4-2.2,1.1-3.1,2c-0.9,0.9-1.7,1.8-2.3,2.7
	s-1.3,2.1-2,3.5c-1,1.8-2.1,4.4-3.5,7.6c-0.9,2-1.6,3.6-2.2,5c-0.6,1.3-1.4,2.9-2.4,4.7c-1,1.8-1.9,3.3-2.9,4.5
	c-0.9,1.2-2,2.4-3.3,3.7c-1.3,1.3-2.6,2.3-4,3.1c-1.4,0.8-3,1.4-4.8,1.9s-3.7,0.7-5.7,0.7h-10c-0.4,0-0.8-0.1-1-0.4
	C0.1,60.8,0,60.4,0,60v-8.6c0-0.4,0.1-0.8,0.4-1C0.7,50.1,1,50,1.4,50h10c1.4,0,2.7-0.2,3.9-0.7s2.2-1.1,3.1-2
	c0.9-0.9,1.7-1.8,2.3-2.7c0.6-0.9,1.3-2.1,2-3.5c1-1.8,2.1-4.4,3.5-7.6c0.9-2,1.6-3.6,2.2-5c0.6-1.3,1.4-2.9,2.4-4.7
	c1-1.8,1.9-3.3,2.9-4.5s2-2.4,3.3-3.7c1.3-1.3,2.6-2.3,4-3.1c1.4-0.8,3-1.4,4.8-1.9c1.8-0.5,3.7-0.7,5.7-0.7h11.4V1.4
	c0-0.4,0.1-0.8,0.4-1c0.3-0.3,0.6-0.4,1-0.4c0.4,0,0.7,0.1,1.1,0.4L79.6,14.7z"/>
</svg>
