<?xml version="1.0" encoding="utf-8"?>
<!-- Generator: Adobe Illustrator 22.0.1, SVG Export Plug-In . SVG Version: 6.00 Build 0)  -->
<svg version="1.1" id="Ebene_1" xmlns="http://www.w3.org/2000/svg" xmlns:xlink="http://www.w3.org/1999/xlink" x="0px" y="0px"
	 viewBox="0 0 24 24" style="enable-background:new 0 0 24 24;" xml:space="preserve">
<style type="text/css">
	.st0{fill:#112052;}
</style>
<path class="st0" d="M3,6v18h18V6H3z M8,20c0,0.6-0.4,1-1,1s-1-0.4-1-1V10c0-0.6,0.4-1,1-1s1,0.4,1,1V20z M13,20c0,0.6-0.4,1-1,1
	s-1-0.4-1-1V10c0-0.6,0.4-1,1-1s1,0.4,1,1V20z M18,20c0,0.6-0.4,1-1,1s-1-0.4-1-1V10c0-0.6,0.4-1,1-1s1,0.4,1,1V20z M22,2v2H2V2h5.7
	c0.9,0,1.6-1.1,1.6-2h5.3c0,0.9,0.7,2,1.6,2H22z"/>
</svg>
